<svg xmlns="http://www.w3.org/2000/svg" width="88.2" height="100" viewBox="20.242 45.255 169.035 191.644" enable-background="new 20.242 45.255 169.035 191.644"><path d="M110.912 86.041c-8.477-.092-16.575-1.723-25.078-.606-7.792 1.022-15.21 4.354-22.251 7.676-4.184 1.974-8.384 3.954-12.439 6.182-5.901 3.244-10.422 7.923-14.458 13.258-4.657 6.158-8.62 12.314-11.046 19.693-2.354 7.159-4.591 14.745-5.221 22.272-1.215 14.526 3.97 29.423 11.203 41.807 6.964 11.922 16.517 22.833 28.368 30.058 6.285 3.831 13.727 6.906 20.903 8.55 8.146 1.864 16.522.485 24.708 1.776 3.636.574 7.53-.325 10.816-1.921 1.077-.522 5.489-3.643 1.841-4.218-7.9-1.246-15.984-.212-23.834-1.601-7.15-1.264-14.433-4.603-20.595-8.358-11.936-7.275-21.277-18.592-28.039-30.678-6.996-12.507-11.665-27.916-9.614-42.331.515-3.62 1.681-7.135 2.619-10.659 1.064-4 2.207-7.97 3.721-11.826 2.611-6.65 7.239-12.798 11.897-18.157 1.52-1.749 3.192-3.463 5.052-4.852.563-.421 1.152-.785 1.76-1.135-1.77 1.02.659-.326 1.048-.528 3.388-1.759 6.836-3.404 10.286-5.036 1.601-.757 3.5-1.661 4.884-2.236 2.403-.998 4.161-1.576 5.504-1.708 5.936-.58 12.046 1.034 17.999 1.099 3.722.041 7.779-.868 10.928-2.929 2.394-1.566 2.097-3.559-.962-3.592zm-8.421 5.211c7.877.017 17.716.896 25.319 2.72 6.877 1.649 14.309 4.447 19.935 7.761 10.636 6.262 18.741 15.527 23.321 26.781 9.138 22.448 4.213 48.58-7.105 69.356-.695 1.279-1.46 2.578-1.863 3.238-.812 1.332-1.666 2.638-2.547 3.926-1.666 2.44-3.465 4.788-5.371 7.044-1.859 2.202-3.848 4.292-5.939 6.273.99-.938-.588.523-.85.756-.505.447-1.02.883-1.537 1.314-1.107.926-2.252 1.807-3.42 2.656-.533.388-1.074.763-1.619 1.134l-.819.544c-1.013.665 1.175-.739.151-.1-1.188.743-2.41 1.433-3.649 2.084-.567.298-1.142.58-1.72.857-1.129.542 1.523-.692.383-.18l-.874.38c-.583.249-1.172.481-1.763.708-.619.237-3.232 1.1-.609.25-1.193.387-2.406.711-3.627.998-1.667.392 1.838-.337-.322.058-.719.131-1.441.235-2.167.331l-.934.107c-1.233.133 1.677-.138.438-.042-.628.049-1.258.077-1.887.099-.633.021-1.266.02-1.898.012l-.955-.027c1.875.067.293.004-.109-.025-1.184-.088-2.362-.239-3.533-.426-.541-.086-1.079-.188-1.616-.296-.247-.049-1.372-.301-.088-.005l-.975-.241c-2.579-.656-5.087-1.574-7.516-2.657-2.771-1.235-7.052.143-9.518 1.482-1.668.906-4.233 3.189-1.408 4.449 24.049 10.718 51.12.312 68.262-17.958 16.643-17.741 26.063-43.065 25.157-67.345-.448-12.017-3.938-23.597-10.663-33.589-7.44-11.062-18.912-18.658-31.328-23.118-12.508-4.494-25.978-5.907-39.195-5.934-2.947-.006-7.012 1.122-8.984 3.476-2.067 2.465 1.765 3.147 3.442 3.149zm-20.229 129.022c-13.292-7.125-14.565-32.087 0-60.5 0 0-27 43.5-37.5 11l-14.401 4.219 46.283 55.296c-.001 0 12.125-6.527 5.618-10.015z" fill="#c33"/><path d="M54.514 212.884c5.603 0 10.569-4.293 9.819-10.184-.755-5.926-6.606-10.305-12.409-10.305-5.603 0-10.569 4.293-9.819 10.184.755 5.926 6.607 10.305 12.409 10.305z" fill="#fff"/><path fill="#079948" d="M108.774 92.437l-3.293.23-20.896-5.295-8.781-11.097 1.632-14.223 18.3-16.797 14.867 2.592-.264 4.154-6.503-4.344.078 3.493 1.351 1.848-18.13 3.782-3.877 6.056 5.513 16.891 1.063-.393 15.892 5.77 3.612-.742zm-2.568.157l.937.725-2.106-8.434 11.395-5.572 9.701-4.987 13.674 5.152 2.054.111-2.907.557-.977 2.482 7.859.115-3.473 4.929-6.675-2.48-7.083-.601-7.337 2.41zm22.042 30.686l-.012-.706-.097-3.084 10.366-8.462 1.307 1.124-3.806-1.939-.923-3.652 6.795 3.723-9.415 10.233.696 1.094-3.354 1.305z"/></svg>