<svg xmlns="http://www.w3.org/2000/svg" width="100" height="102.295" viewBox="2.002 0.717 100 102.295" enable-background="new 2.002 0.717 100 102.295"><path d="M90.039 81.191c9.136-23.479-4.456-53.096-26.746-66.533-21.543-12.988-49.335-8.754-58.419 14.571-9.119 23.464 4.475 53.083 26.764 66.535 21.532 12.986 49.33 8.754 58.401-14.573zm-59.852-7.55c-24.406-14.707-12.41-55.416 15.123-38.801 24.406 14.723 12.4 55.398-15.123 38.801z" fill="#c33"/><path fill="#079948" d="M26.975 64.319l.763-3.097 3.12-13.569 55.423-22.844 4.469 6.669-14.536-13.603.149-17.158 25.639 25.415-53.279 31.847 1.813 5.712-16.281 1.141z"/></svg>