<svg xmlns="http://www.w3.org/2000/svg" width="161.574" height="161.644" viewBox="25.298 45.255 161.574 161.644" enable-background="new 25.298 45.255 161.574 161.644"><path d="M110.912 86.041c-8.477-.092-16.575-1.723-25.078-.606-7.792 1.022-16.418 2.438-23.459 5.761-4.184 1.974-9.445 4.897-13.5 7.125-5.901 3.244-11.478 9.124-15.514 14.458-4.657 6.158-7.173 13.819-7.803 21.347-1.215 14.527 1.832 19.813 9.064 32.197 6.964 11.922 16.517 22.833 28.368 30.058 6.285 3.831 13.727 6.906 20.903 8.551 8.146 1.863 16.522.484 24.708 1.775 3.636.574 7.53-.325 10.816-1.921 1.077-.522 5.489-3.644 1.841-4.218-7.9-1.246-15.984-.213-23.834-1.602-7.15-1.264-14.433-4.603-20.595-8.358-11.936-7.275-21.277-18.592-28.039-30.678-6.996-12.507-12.591-14.195-10.54-28.61.658-1.909 2.682-7.546 5-10.625 3.121-4.146 6.525-9.677 10.875-13.625 6.681-6.064 14.502-9.967 18.434-11.664 1.601-.757 3.5-1.661 4.884-2.236 2.403-.998 4.161-1.576 5.504-1.708 5.936-.58 12.046 1.034 17.999 1.099 3.722.041 7.779-.868 10.928-2.929 2.394-1.565 2.097-3.558-.962-3.591zm-8.421 5.211c7.877.017 20.905-.409 28.509 1.415 16.625 6.028 19.25 8.653 25.75 13.895 10.285 8.359 13.26 11.82 16.415 22.925 3.481 12.257-.266 27.483-6.204 38.384-.695 1.279-1.46 2.578-1.863 3.238-.812 1.332-1.666 2.638-2.547 3.926-1.666 2.44-3.465 4.788-5.371 7.044-1.859 2.202-3.848 4.292-5.939 6.273.99-.938-.588.523-.85.756-.505.447-1.02.883-1.537 1.314-1.107.926-2.252 1.807-3.42 2.656-.533.388-1.074.763-1.619 1.134l-.819.544c-1.013.665 1.175-.739.151-.1-1.188.743-2.41 1.433-3.649 2.084-.567.298-1.142.58-1.72.857-1.129.541 1.523-.693.383-.181l-.874.38c-.583.249-1.172.48-1.763.708-.619.237-3.232 1.101-.609.25-1.193.388-2.406.711-3.627.998-1.667.392 1.838-.337-.322.058-.719.131-1.441.235-2.167.332l-.934.106c-1.233.133 1.677-.138.438-.042-.628.049-1.258.077-1.887.1-.633.021-1.266.02-1.898.012l-.955-.027c1.875.066.293.004-.109-.025-1.184-.088-2.362-.238-3.533-.426-.541-.086-1.079-.188-1.615-.296-.248-.049-1.373-.301-.089-.005l-.975-.241c-2.579-.655-5.087-1.573-7.516-2.657-2.771-1.234-7.052.144-9.518 1.482-1.668.906-4.233 3.189-1.408 4.449 24.049 10.718 51.12.312 68.262-17.958 16.643-17.741 20.596-23.64 19.689-47.919-.448-12.017-1.471-13.022-8.195-23.015-7.44-11.062-18.912-18.658-31.328-23.118-12.508-4.494-25.978-5.907-39.195-5.934-2.947-.006-7.012 1.122-8.984 3.476-2.067 2.464 1.765 3.146 3.442 3.148zm-16.09 103.599c-13.292-7.125-14.565-32.087 0-60.5 0 0-27 43.5-37.5 11l-14.401 4.219 46.283 55.296c-.001 0 12.125-6.526 5.618-10.015z" fill="#c33"/><path d="M57.514 182.884c5.603 0 10.569-4.293 9.819-10.184-.755-5.926-6.606-10.305-12.409-10.305-5.603 0-10.569 4.293-9.819 10.184.755 5.926 6.607 10.305 12.409 10.305z" fill="#fff"/><path fill="#079948" d="M108.774 92.437l-3.293.23-20.896-5.295-8.781-11.097 1.632-14.223 18.3-16.797 14.867 2.592-.264 4.154-6.503-4.344.078 3.493 1.351 1.848-18.13 3.782-3.877 6.056 5.513 16.891 1.063-.393 15.892 5.77 3.612-.742zm-2.568.157l.937.725-2.106-8.434 11.395-5.572 9.701-4.987 13.674 5.152 2.054.111-2.907.557-.977 2.482 7.859.115-3.473 4.929-6.675-2.48-7.083-.601-7.337 2.41zm8.157 23.717l.166-.686.681-3.01 12.161-5.583.983 1.417-3.196-2.834.025-3.766 5.64 5.312-11.686 7.536.399 1.234-3.575.419z"/></svg>